# xmcd
# 
# Track frame offsets:
#     150
#     12875
#     32597
#     45465
#     64305
#     81130
#     97167
#     110272
#     127140
#     143172
#     159662
#     178712
#     192805
# 
# Disc length: 2821
# 
# Revision: 1
# Processed by: cddbd v1.5.2PL0 Copyright (c) Steve Scherf et al.
# Submitted via: BonkEnc v1.0
# 
DISCID=ae0b030d
DTITLE=JOÃO VICTOR and VINÍCIUS - AO VIVO - JOÃO VICTOR and VINÍCIUS - AO VIVO
DYEAR=2006
DGENRE=Country
TTITLE0=O CHÃO BALANÇA
TTITLE1=COISAS DO CORAÇÃO
TTITLE2=OH! TREM BÃO
TTITLE3=FLÔR DE FLABOYANT - EU PRECISO DESSE AMOR
TTITLE4=QUANTO MAIS MUIÉ MIÓ
TTITLE5=PRÁ DESBOTAR A SAUDADE
TTITLE6=NÓIS TÁ NA FITA
TTITLE7=ELA PEGOU MEU CORAÇÃO
TTITLE8=QUANDO DEU TE FEZ
TTITLE9=DE BEM COM A PAIXÃO
TTITLE10=PRECISA VOLTAR
TTITLE11=VAMOS FAZER UM TRUPÉ
TTITLE12=NAMORAR SEM ROUPA
EXTD=
EXTT0=
EXTT1=
EXTT2=
EXTT3=
EXTT4=
EXTT5=
EXTT6=
EXTT7=
EXTT8=
EXTT9=
EXTT10=
EXTT11=
EXTT12=
PLAYORDER=
